# xmcd CD database file
#
# Track frame offsets:
#	150
#	722
#	22565
#	57238
#	92598
#	114466
#	139453
#	151484
#	183522
#	216476
#	252664
#	287177
#	318633
#	346395
#	351485
#
# Disc length: 4714 seconds
#
# Revision: 0
# Processed by: cddbd v1.5.2PL0 Copyright (c) Steve Scherf et al.
# Submitted via: CDex 1.50
#
DISCID=e812680f
DTITLE=Riek, Saleem - Herzenslust (Disk 3)
DYEAR=1900
DGENRE=New Age
TTITLE0=Teil 4 - Tantra und die Kunst des Seins - Die Lust als Wegweiser 5
TTITLE1=Teil 4 - Tantra und die Kunst des Seins - Die Lust als Wegweiser 6
TTITLE2=Teil 4 - Tantra und die Kunst des Seins - Der Weg des Tantra 1
TTITLE3=Teil 4 - Tantra und die Kunst des Seins - Der Weg des Tantra 2
TTITLE4=Teil 4 - Tantra und die Kunst des Seins - Der Weg des Tantra 3
TTITLE5=Teil 4 - Tantra und die Kunst des Seins - Der Weg des Tantra 4
TTITLE6=Musik Etüde
TTITLE7=Teil 4 - Tantra und die Kunst des Seins - Die Kunst des Seins 1
TTITLE8=Teil 4 - Tantra und die Kunst des Seins - Die Kunst des Seins 2
TTITLE9=Teil 4 - Tantra und die Kunst des Seins - Die Kunst des Seins 3
TTITLE10=Teil 4 - Tantra und die Kunst des Seins - Zusammen Sein 1
TTITLE11=Teil 4 - Tantra und die Kunst des Seins - Zusammen Sein 2
TTITLE12=Teil 4 - Tantra und die Kunst des Seins - Zusammen Sein 3
TTITLE13=Musik Lust auf Leben
TTITLE14=Absage
EXTD=
EXTT0=
EXTT1=
EXTT2=
EXTT3=
EXTT4=
EXTT5=
EXTT6=
EXTT7=
EXTT8=
EXTT9=
EXTT10=
EXTT11=
EXTT12=
EXTT13=
EXTT14=
PLAYORDER=
